<svg width="32" height="32" viewBox="0 0 32 32" fill="none" xmlns="http://www.w3.org/2000/svg">
<g clip-path="url(#clip0_305_11466)">
<path d="M0 31.74H31.74V0H0V31.74Z" fill="#DE4A09"/>
<path d="M6.9138 23.0004C6.75491 23.0401 5.88096 23.2784 5.1262 23.2784C4.1728 23.2784 3.17969 23.0004 3.17969 20.6963C3.17969 18.432 4.4906 18.0348 5.48372 18.0348C6.19876 18.0348 6.75491 18.3128 6.75491 18.3128V18.9882C6.75491 18.9882 6.11931 18.7498 5.48372 18.7498C4.84812 18.7498 4.09335 19.0279 4.09335 20.6566C4.09335 22.325 4.68922 22.5634 5.20565 22.5634C5.56317 22.5634 6.03986 22.4442 6.03986 22.4442V20.736H5.24537L5.16592 20.1005H6.9138V23.0004ZM7.46995 18.0348H11.2041L11.0849 18.8293H9.85343V23.2387H8.86031V18.869H7.43023V18.0348H7.46995ZM11.9986 18.0745L13.7464 18.0348C15.9313 18.0348 15.8916 20.3785 14.6204 20.4977C16.0108 20.6963 15.9313 22.762 14.6204 23.2387H12.0383V18.0745H11.9986ZM12.952 18.869V20.2196H13.8656C14.382 20.1799 14.6601 19.0279 13.9053 18.869H12.952ZM12.952 20.9347V22.4442H13.8656C14.8985 22.4442 14.6601 20.9744 13.9053 20.9347H12.952ZM16.5669 19.5046C17.8778 18.9087 19.3873 19.0279 19.6257 20.021V23.2387H18.712V22.7223C17.9175 23.5962 16.0108 23.4373 16.2491 21.6497C16.408 20.8155 17.2819 20.5772 18.6326 20.6963C18.7518 19.5443 17.2819 20.1005 16.5669 20.2991V19.5046ZM17.3217 21.5305C16.7258 22.5237 17.9175 22.8415 18.6326 22.0867V21.4114C18.1956 21.2525 17.5203 21.2525 17.3217 21.5305ZM21.5325 20.458V23.2784H20.4996V19.1868H21.453V19.6635C22.8831 18.8293 24.0351 19.0676 24.2338 20.2594V23.2387H23.2009V20.4183C23.0023 19.7032 21.7708 20.1799 21.5325 20.458ZM24.9885 23.2784V18.0348H25.9816V23.2387H24.9885V23.2784ZM27.372 19.1868H28.5637L27.1734 21.0141L28.6829 23.2784H27.5706L26.1008 20.9744L27.372 19.1868ZM18.1162 12.4733H26.0611V4.56812H18.1162V12.4733Z" fill="#FEFEFE"/>
</g>
<defs>
<clipPath id="clip0_305_11466">
<rect width="31.74" height="31.74" fill="white"/>
</clipPath>
</defs>
</svg>
