<svg width="103" height="32" viewBox="0 0 103 32" fill="none" xmlns="http://www.w3.org/2000/svg">
<g clip-path="url(#clip0_305_11479)">
<path fill-rule="evenodd" clip-rule="evenodd" d="M16.5758 10.0274C16.3489 7.29328 18.3015 5.22768 20.7104 4.98139C23.3718 4.70932 25.5162 6.71949 25.7485 9.09351C26.0117 11.7858 24.0101 13.9052 21.6415 14.1498C18.9714 14.4258 16.772 12.3903 16.5757 10.0274H16.5758ZM0 15.5489C0 17.2987 0.0873439 17.9738 0.427664 19.5638C0.804761 21.3254 1.79257 23.4697 2.79263 24.8781C4.06086 26.6641 5.83476 28.4149 7.74574 29.508C8.17926 29.756 8.5636 29.9517 9.03291 30.1882C12.3605 31.8655 16.1692 32.115 19.785 31.2722C21.0373 30.9802 22.7192 30.258 23.8263 29.6016C24.0657 29.4597 24.199 29.3941 24.4215 29.2447C25.0501 28.8224 25.4672 28.5634 26.07 28.0374C26.2736 27.8596 26.3771 27.7923 26.5761 27.5915C26.7533 27.4126 26.8713 27.2978 27.06 27.1234L27.2758 26.8949C28.0595 26.0384 28.0864 26.0335 28.8132 25.0687L29.5721 23.9237C30.3168 22.6275 30.8444 21.4031 31.2471 19.8868C32.1843 16.3563 31.7958 12.3117 30.2313 9.05353C29.6681 7.88045 28.8276 6.55873 27.9733 5.59976C26.4593 3.90052 24.6949 2.3789 22.5752 1.47802C19.7486 0.276519 18.5977 0 15.2317 0C13.8179 0 11.7863 0.408441 10.4528 0.932922C8.03424 1.88409 6.37304 2.9247 4.58548 4.71225C3.48345 5.81415 2.48004 7.15844 1.77752 8.5682C0.76102 10.6082 0 12.7766 0 15.549L0 15.5489Z" fill="#DB1D1D"/>
<path fill-rule="evenodd" clip-rule="evenodd" d="M98.3068 25.1327C97.0206 25.1327 96.2125 24.239 96.2125 23.1017C96.2125 22.2094 96.2063 21.7657 96.7818 21.0056C97.493 20.0664 99.2405 19.9143 99.9216 20.9159C100.731 22.1061 100.491 25.1327 98.3068 25.1327ZM93.5469 22.721C93.5469 23.8934 93.5763 24.6834 94.3257 25.6867C95.6709 27.4879 98.8287 28.0902 100.315 26.1258C100.41 26.0011 100.343 26.0884 100.401 26.0211C100.401 26.6505 100.723 27.8705 99.9121 28.7054C98.8599 29.7884 96.2017 29.4886 95.0337 28.7231C94.832 28.5909 94.6458 28.362 94.4355 28.3057C94.4355 28.7904 94.3558 29.4823 94.4719 29.9194C94.7648 31.0217 96.3789 31.7329 97.6087 31.7329C98.9995 31.7329 100.345 31.534 101.306 30.6697C103.481 28.7121 102.94 26.9906 102.94 24.244C102.94 22.7304 103.031 21.6018 102.588 20.471C101.275 17.1197 96.6676 17.2562 94.6693 19.7179C94.1159 20.3995 93.547 21.5201 93.547 22.7209L93.5469 22.721Z" fill="#666666"/>
<path fill-rule="evenodd" clip-rule="evenodd" d="M36.3634 19.2298C36.3634 20.2596 36.5774 20.8754 37.2037 21.4994C39.0845 23.3731 42.9004 22.6362 42.9004 24.4973C42.9004 25.8238 42.1967 26.2028 40.8713 26.2762C40.5881 26.292 40.6246 26.3384 40.3617 26.3384C39.5703 26.3384 38.6004 26.032 37.958 25.7587C37.6374 25.6222 37.1718 25.2801 36.8886 25.0401C36.5689 24.7693 36.6172 24.8789 36.6172 25.5762C36.6172 26.6504 36.8371 27.5202 37.7794 28.0315C39.2182 28.8121 41.1165 28.8474 42.67 28.3923C43.2821 28.2129 43.7148 27.9301 44.1613 27.5988C45.7332 26.4327 46.7229 22.4565 42.9894 21.1714C42.2247 20.9083 41.3899 20.7994 40.6228 20.5552C40.0395 20.3695 38.9655 19.9943 38.9655 19.2297C38.9655 17.0438 42.4611 17.3513 43.7991 17.8866C44.0721 17.9959 44.3057 18.1317 44.5336 18.2945C44.9404 18.5851 44.929 18.717 45.1851 18.7854C45.1851 18.2107 45.2565 17.491 45.1099 17.0202C44.3692 14.6414 39.554 14.6896 37.8381 16.3252L37.5756 16.5705C37.4823 16.6677 37.3943 16.7609 37.3002 16.8664C36.802 17.4248 36.3633 18.3983 36.3633 19.2297L36.3634 19.2298Z" fill="#666666"/>
<path fill-rule="evenodd" clip-rule="evenodd" d="M16.5764 10.028C16.7726 12.3909 18.9721 14.4264 21.6423 14.1505C24.0107 13.9059 26.0125 11.7865 25.7492 9.09415C25.517 6.71999 23.3725 4.70996 20.7111 4.98202C18.3021 5.22831 16.3495 7.29392 16.5766 10.028H16.5764Z" fill="#FFFEFE"/>
<path fill-rule="evenodd" clip-rule="evenodd" d="M57.3061 22.5929H56.5445C56.5445 21.2445 57.3116 20.1178 58.5119 20.1178C59.5953 20.1178 60.6062 20.2959 60.6062 21.7044C60.6062 22.6371 58.7881 22.5011 58.3581 22.5662C58.0253 22.6165 57.6534 22.5929 57.3061 22.5929ZM53.8789 23.3545C53.8789 25.2045 54.5916 26.712 56.0359 27.7344C56.1964 27.8479 56.2217 27.8884 56.4158 27.989C57.7212 28.6659 59.0321 28.8664 60.5162 28.5323C61.4009 28.3331 62.1909 27.9901 62.5294 27.1184C62.6921 26.6995 62.637 26.063 62.637 25.5122C62.4054 25.574 62.1929 25.8787 61.4048 26.1839C60.6009 26.4953 59.8853 26.4641 59.0195 26.4641C58.4034 26.4641 57.7812 26.1423 57.4041 25.8581C57.0585 25.5976 56.8209 25.2688 56.6789 24.8697C56.6203 24.7048 56.6123 24.5748 56.5444 24.4331C58.5836 24.4331 63.0178 24.7565 63.0178 22.1484C63.0178 20.5752 62.5613 19.5725 61.4684 18.7476C59.6227 17.3545 56.6604 17.7015 54.9844 19.8268C54.3531 20.6273 53.8789 21.947 53.8789 23.3542V23.3545Z" fill="#666666"/>
<path fill-rule="evenodd" clip-rule="evenodd" d="M82.9453 21.9587V26.9724C82.9453 27.8006 83.8272 28.432 84.532 28.432H85.484V22.5298C85.484 21.3778 86.1503 20.2451 87.0071 20.2451C87.9299 20.2451 88.8761 20.2453 89.2527 21.5535C89.6208 22.831 89.2497 26.3682 89.4557 27.1893C89.7843 28.4992 91.0623 28.432 91.9573 28.432V22.2759C91.9573 21.073 91.5209 19.9668 90.7359 19.1817C89.9922 18.4379 89.0577 17.9855 87.6243 17.9328C86.311 17.8845 85.103 18.3641 84.3599 18.9942C83.6971 19.5561 82.9453 20.7663 82.9453 21.9586V21.9587Z" fill="#666666"/>
<path fill-rule="evenodd" clip-rule="evenodd" d="M47.2189 18.5317V24.6244C47.2189 29.1303 51.6719 28.9734 52.8157 28.0634C53.4002 27.5982 53.375 26.8606 53.375 26.084C53.375 25.8098 53.1904 25.9202 53.0397 25.9915C52.2588 26.3615 49.821 26.7294 49.821 24.7511V20.4355C50.9517 20.4355 52.3272 20.6251 52.9779 20.0383C53.4631 19.6008 53.375 18.8172 53.375 18.1507H49.821V15.9929C49.821 15.5857 48.8333 15.8758 48.546 16.0509C48.272 16.2177 48.0806 16.3949 47.8793 16.6535C47.4696 17.1794 47.2188 17.6249 47.2188 18.5316L47.2189 18.5317Z" fill="#676767"/>
<path fill-rule="evenodd" clip-rule="evenodd" d="M71.4609 25.64C71.4609 28.6366 75.0131 28.9733 75.9517 28.2268C76.5235 27.7721 76.4113 27.1498 76.4113 26.4016C75.5654 26.4016 74.5552 26.5425 74.1657 25.7912C73.8734 25.2276 73.9996 21.2326 73.9996 20.4359C73.9996 19.2089 73.9968 17.9818 73.9996 16.7548C74.0013 16.0105 73.9667 15.7081 73.6307 15.283C73.1192 14.6358 72.1972 14.724 71.4609 14.724V25.6399V25.64Z" fill="#666666"/>
<path fill-rule="evenodd" clip-rule="evenodd" d="M64.4805 22.022V26.7819C64.4805 28.5627 66.0949 28.4319 67.0825 28.4319V22.4662C67.0825 21.5988 67.2858 20.8829 68.0096 20.5373C68.9588 20.0841 70.1294 20.6628 70.4462 20.6891C70.4462 20.1836 70.4821 19.6672 70.3541 19.258C70.2417 18.8988 69.9522 18.5445 69.6531 18.3725C68.2559 17.569 64.4805 18.08 64.4805 22.022Z" fill="#666666"/>
<path fill-rule="evenodd" clip-rule="evenodd" d="M77.3633 18.5321V24.6882C77.3633 27.1011 78.0861 28.5596 80.5999 28.5596C82.1083 28.5596 81.9961 27.3088 81.9961 26.4018C79.5882 26.4018 79.9653 26.1814 79.9653 22.0228C79.9653 19.5745 80.2707 18.3418 77.5537 18.3418C77.4074 18.3418 77.3633 18.386 77.3633 18.5322V18.5321Z" fill="#676767"/>
<path fill-rule="evenodd" clip-rule="evenodd" d="M77.1719 15.8032C77.1719 18.1666 80.1548 17.7256 80.1548 16.1205V15.8032C80.1548 15.0721 79.3906 14.4373 78.6899 14.417C77.962 14.3959 77.1719 15.0758 77.1719 15.8032Z" fill="#666666"/>
</g>
<defs>
<clipPath id="clip0_305_11479">
<rect width="103" height="31.7423" fill="white"/>
</clipPath>
</defs>
</svg>
