<svg width="17" height="16" viewBox="0 0 17 16" fill="none" xmlns="http://www.w3.org/2000/svg">
<path d="M8.50187 14.1667C8.62854 14.1667 8.75521 14.12 8.85521 14.02L12.9019 9.97334C13.0952 9.78001 13.0952 9.46001 12.9019 9.26667C12.7085 9.07334 12.3885 9.07334 12.1952 9.26667L8.50187 12.96L4.80854 9.26667C4.61521 9.07334 4.29521 9.07334 4.10187 9.26667C3.90854 9.46001 3.90854 9.78001 4.10187 9.97334L8.14854 14.02C8.24854 14.12 8.37521 14.1667 8.50187 14.1667Z" fill="white"/>
<path d="M8.5 14.0533C8.77333 14.0533 9 13.8267 9 13.5533V2.33334C9 2.06001 8.77333 1.83334 8.5 1.83334C8.22667 1.83334 8 2.06001 8 2.33334V13.5533C8 13.8267 8.22667 14.0533 8.5 14.0533Z" fill="white"/>
</svg>
