<svg width="17" height="16" viewBox="0 0 17 16" fill="none" xmlns="http://www.w3.org/2000/svg">
<path d="M6.5013 15.1667H10.5013C14.1213 15.1667 15.668 13.62 15.668 10V6.00001C15.668 2.38001 14.1213 0.833344 10.5013 0.833344H6.5013C2.8813 0.833344 1.33463 2.38001 1.33463 6.00001V10C1.33463 13.62 2.8813 15.1667 6.5013 15.1667ZM10.5013 1.83334C13.5746 1.83334 14.668 2.92668 14.668 6.00001V10C14.668 13.0733 13.5746 14.1667 10.5013 14.1667H6.5013C3.42797 14.1667 2.33463 13.0733 2.33463 10V6.00001C2.33463 2.92668 3.42797 1.83334 6.5013 1.83334H10.5013Z" fill="#1D91CC"/>
<path d="M7.22104 10.7533H10.501C10.7744 10.7533 11.001 10.5266 11.001 10.2533C11.001 9.97997 10.7744 9.7533 10.501 9.7533H7.22104C6.36771 9.7533 5.66771 9.05997 5.66771 8.19997C5.66771 7.33997 6.36104 6.64664 7.22104 6.64664H11.7344C12.0077 6.64664 12.2344 6.41997 12.2344 6.14664C12.2344 5.8733 12.0077 5.64664 11.7344 5.64664H7.22104C5.81438 5.64664 4.66771 6.7933 4.66771 8.19997C4.66771 9.60664 5.81438 10.7533 7.22104 10.7533Z" fill="#1D91CC"/>
<path d="M10.787 7.68001C10.9137 7.68001 11.0404 7.63335 11.1404 7.53335L12.187 6.48668C12.3804 6.29335 12.3804 5.97335 12.187 5.78001L11.1404 4.73335C10.947 4.54002 10.627 4.54002 10.4337 4.73335C10.2404 4.92668 10.2404 5.24669 10.4337 5.44002L11.127 6.13335L10.4337 6.82668C10.2404 7.02001 10.2404 7.34002 10.4337 7.53335C10.527 7.62668 10.6537 7.68001 10.787 7.68001Z" fill="#1D91CC"/>
</svg>
