<svg width="41" height="40" viewBox="0 0 41 40" fill="none" xmlns="http://www.w3.org/2000/svg">
<path d="M20.4987 37.9167C10.6154 37.9167 2.58203 29.8833 2.58203 20C2.58203 10.1167 10.6154 2.08334 20.4987 2.08334C30.382 2.08334 38.4154 10.1167 38.4154 20C38.4154 29.8833 30.382 37.9167 20.4987 37.9167ZM20.4987 4.58334C11.9987 4.58334 5.08203 11.5 5.08203 20C5.08203 28.5 11.9987 35.4167 20.4987 35.4167C28.9987 35.4167 35.9154 28.5 35.9154 20C35.9154 11.5 28.9987 4.58334 20.4987 4.58334Z" fill="#00966D"/>
<path d="M18.1344 25.9667C17.801 25.9667 17.4844 25.8333 17.251 25.6L12.5344 20.8833C12.051 20.4 12.051 19.6 12.5344 19.1167C13.0177 18.6333 13.8177 18.6333 14.301 19.1167L18.1344 22.95L26.701 14.3833C27.1844 13.9 27.9844 13.9 28.4677 14.3833C28.951 14.8667 28.951 15.6667 28.4677 16.15L19.0177 25.6C18.7844 25.8333 18.4677 25.9667 18.1344 25.9667Z" fill="#00966D"/>
</svg>
